<?xml version="1.0" standalone="no"?>
<!DOCTYPE svg PUBLIC "-//W3C//DTD SVG 20010904//EN"
 "http://www.w3.org/TR/2001/REC-SVG-20010904/DTD/svg10.dtd">
<svg version="1.0" xmlns="http://www.w3.org/2000/svg"
 width="512.000000pt" height="512.000000pt" viewBox="0 0 512.000000 512.000000"
 preserveAspectRatio="xMidYMid meet">

<g transform="translate(0.000000,512.000000) scale(0.100000,-0.100000)"
fill="#000000" stroke="none">
<path d="M269 5020 c-98 -17 -183 -80 -226 -168 l-28 -57 0 -1450 0 -1450 28
-57 c32 -65 89 -121 156 -152 46 -21 51 -21 909 -24 l862 -2 0 -195 0 -195
-257 0 c-238 0 -260 -2 -290 -20 -57 -35 -65 -63 -61 -235 l3 -154 30 -31 c16
-17 45 -35 65 -41 23 -7 331 -9 910 -7 l875 3 34 24 c51 37 61 72 61 222 0
114 -3 136 -21 168 -36 65 -37 65 -329 71 l-265 5 -3 193 -2 192 694 0 695 0
11 -42 c6 -24 13 -50 15 -58 3 -9 -9 -24 -29 -37 -40 -26 -66 -77 -66 -133 0
-46 249 -1021 277 -1084 45 -101 131 -173 244 -202 158 -41 349 63 408 221 38
101 33 133 -105 664 -69 267 -132 507 -140 532 -23 71 -94 129 -159 129 -29 0
-45 48 -21 62 42 24 79 66 108 125 l32 66 4 211 4 211 87 90 c167 173 262 361
312 616 20 99 17 347 -5 449 -51 239 -144 416 -307 585 l-87 90 -4 310 c-5
365 -8 376 -97 466 -105 104 138 94 -2216 95 -1133 1 -2081 -2 -2106 -6z
m4165 -111 c55 -15 120 -84 134 -141 13 -52 17 -532 5 -526 -5 2 -43 23 -85
46 l-78 44 0 189 c0 176 -1 190 -20 209 -20 20 -33 20 -2042 20 -1867 0 -2023
-1 -2040 -17 -17 -15 -18 -65 -18 -1190 l0 -1173 -85 0 -85 0 0 1193 c0 1139
1 1194 19 1232 24 51 68 93 117 110 33 12 374 14 2089 15 1426 0 2062 -3 2089
-11z m-134 -400 c0 -131 0 -131 -22 -126 -173 41 -232 50 -353 50 -147 1 -241
-13 -368 -54 -179 -58 -369 -179 -495 -314 -243 -259 -370 -622 -333 -950 28
-247 126 -472 288 -660 l73 -85 -1345 0 -1345 0 0 1135 0 1135 1950 0 1950 0
0 -131z m-195 -205 c215 -41 408 -141 568 -293 190 -182 288 -386 319 -670 33
-296 -71 -604 -282 -834 -115 -125 -287 -236 -454 -293 -256 -87 -576 -68
-811 49 -302 150 -512 420 -581 747 -22 102 -25 343 -5 435 49 232 152 425
309 577 255 247 589 347 937 282z m-805 -2088 c85 -53 216 -107 326 -135 94
-24 294 -44 346 -36 42 7 34 23 78 -155 12 -47 23 -93 26 -102 5 -17 -89 -18
-1887 -18 -1421 0 -1901 3 -1931 12 -50 15 -111 76 -126 126 -7 23 -12 105
-12 196 l0 156 1554 0 1554 0 72 -44z m1266 -300 c-16 -56 -62 -110 -70 -85
-3 8 -23 82 -44 166 l-40 152 82 44 81 44 3 -135 c2 -97 -2 -149 -12 -186z
m-191 -49 c48 -189 57 -239 47 -246 -18 -11 -171 -46 -176 -40 -9 9 -126 472
-121 478 7 7 167 48 180 46 5 -1 36 -108 70 -238z m-1757 -399 l-3 -193 -267
-3 -268 -2 0 195 0 195 270 0 270 0 -2 -192z m1984 55 c23 -26 89 -283 74
-288 -30 -11 -438 -115 -450 -115 -9 0 -24 41 -45 118 -36 135 -38 173 -13
194 19 18 339 106 388 107 18 1 37 -6 46 -16z m-1374 -489 c2 -94 -1 -124 -11
-133 -11 -8 -237 -10 -878 -9 l-864 3 -3 119 c-1 66 0 126 2 133 4 11 165 13
878 11 l873 -3 3 -121z m1504 34 c10 -34 16 -64 14 -66 -6 -5 -468 -123 -471
-120 -6 6 -34 122 -31 126 4 4 446 120 461 121 6 1 18 -27 27 -61z m96 -377
c60 -232 63 -275 25 -352 -75 -146 -258 -179 -378 -68 -53 49 -62 71 -125 312
-40 154 -46 189 -34 194 29 11 420 110 440 112 19 1 26 -18 72 -198z"/>
<path d="M2275 4465 c-68 -10 -93 -18 -106 -34 -30 -36 -8 -77 45 -83 29 -3
24 -9 -166 -228 l-195 -225 -174 -48 c-96 -27 -256 -72 -357 -100 l-182 -52
-235 -214 c-244 -222 -256 -238 -219 -276 36 -35 64 -17 289 190 l218 200 307
86 c169 48 332 94 363 103 54 16 58 19 263 257 191 221 209 239 217 217 18
-46 25 -53 55 -56 23 -2 34 2 46 20 22 35 -3 215 -35 241 -12 9 -26 17 -33 16
-6 -1 -51 -7 -101 -14z"/>
<path d="M2010 3750 c-19 -19 -20 -33 -20 -545 l0 -525 -25 0 -25 0 0 441 c0
438 -2 470 -34 491 -6 4 -79 8 -161 8 -120 0 -155 -3 -173 -16 l-22 -15 0
-455 0 -455 -27 3 -28 3 -3 274 c-1 182 -6 279 -13 288 -15 18 -339 19 -357 1
-9 -9 -12 -87 -12 -290 l0 -278 -30 0 -30 0 0 148 c0 102 -4 152 -12 160 -8 8
-63 12 -180 12 -155 0 -168 -1 -178 -19 -5 -11 -10 -83 -10 -160 l0 -141 -56
0 c-74 0 -94 -12 -94 -55 0 -24 6 -38 19 -45 13 -7 340 -10 989 -10 926 0 970
1 985 18 44 48 7 92 -76 92 l-57 0 0 520 0 521 -25 24 c-23 24 -28 25 -175 25
-137 0 -152 -2 -170 -20z m260 -580 l0 -490 -85 0 -85 0 0 490 0 490 85 0 85
0 0 -490z m-440 -75 l0 -415 -85 0 -85 0 0 415 0 415 85 0 85 0 0 -415z m-440
-180 l0 -235 -85 0 -85 0 0 235 0 235 85 0 85 0 0 -235z m-442 -127 l3 -108
-86 0 -85 0 0 110 0 111 83 -3 82 -3 3 -107z"/>
<path d="M3730 4125 c-179 -40 -324 -118 -445 -239 -195 -195 -286 -423 -272
-686 22 -405 313 -755 703 -847 106 -24 310 -24 409 1 262 67 492 259 611 509
59 125 76 197 81 352 4 127 2 149 -21 240 -87 335 -315 566 -651 657 -95 26
-325 33 -415 13z m406 -121 c218 -62 389 -206 489 -409 59 -119 76 -187 82
-327 8 -182 -32 -324 -136 -477 -221 -325 -651 -436 -1008 -261 -196 97 -334
257 -405 470 -29 88 -32 106 -32 235 -1 159 12 222 70 342 172 359 562 537
940 427z"/>
<path d="M4285 3491 c-49 -12 -83 -40 -105 -85 -17 -36 -20 -62 -20 -166 0
-104 3 -130 20 -164 33 -66 61 -80 165 -84 81 -3 93 -1 124 20 63 43 72 74 69
240 -3 161 -11 183 -75 220 -34 20 -133 31 -178 19z m133 -123 c8 -7 12 -46
12 -128 0 -134 -3 -139 -74 -147 -35 -4 -48 -1 -65 16 -19 19 -21 32 -21 135
0 118 3 128 45 139 26 7 87 -2 103 -15z"/>
<path d="M3362 3470 c-35 -22 -71 -87 -72 -130 0 -40 42 -113 76 -133 18 -9
63 -20 100 -24 75 -6 94 -15 94 -44 0 -36 -38 -49 -147 -49 -101 0 -104 -1
-115 -25 -8 -18 -8 -31 0 -49 14 -32 57 -40 172 -34 104 6 144 25 177 84 28
49 29 93 3 145 -29 56 -71 79 -145 79 -65 0 -105 18 -105 49 0 33 21 41 116
41 51 0 104 4 118 10 30 11 42 49 26 79 -10 20 -19 21 -138 21 -110 0 -131 -3
-160 -20z"/>
<path d="M3802 3470 c-63 -39 -72 -67 -72 -231 0 -135 2 -149 23 -179 38 -58
79 -74 192 -78 118 -3 148 7 153 54 2 17 -3 36 -10 41 -7 6 -62 13 -121 15
-117 3 -127 8 -127 61 l0 27 110 0 c104 0 112 1 135 24 16 17 23 31 18 43 -14
40 -23 43 -144 43 l-119 0 0 29 c0 59 4 61 109 61 111 0 144 12 149 53 6 51
-9 57 -142 57 -103 0 -126 -3 -154 -20z"/>
</g>
</svg>
