<?xml version="1.0" standalone="no"?>
<!DOCTYPE svg PUBLIC "-//W3C//DTD SVG 20010904//EN"
 "http://www.w3.org/TR/2001/REC-SVG-20010904/DTD/svg10.dtd">
<svg version="1.0" xmlns="http://www.w3.org/2000/svg"
 width="735.000000pt" height="552.000000pt" viewBox="0 0 735.000000 552.000000"
 preserveAspectRatio="xMidYMid meet">

<g transform="translate(0.000000,552.000000) scale(0.100000,-0.100000)"
fill="#000000" stroke="none">
<path d="M3615 3219 c-318 -37 -504 -380 -367 -674 78 -166 241 -266 432 -266
345 1 571 360 423 673 -88 186 -279 290 -488 267z m184 -58 c164 -51 276 -184
304 -360 17 -113 -23 -243 -104 -334 -168 -192 -474 -195 -641 -7 -209 236
-109 605 190 701 75 24 175 24 251 0z"/>
<path d="M3420 2992 c0 -2 43 -62 95 -133 52 -70 95 -131 95 -134 0 -4 -43
-53 -95 -110 -52 -56 -95 -105 -95 -109 0 -3 8 -6 18 -6 10 0 57 43 106 95 48
52 92 93 97 89 5 -3 39 -46 75 -95 l66 -89 74 2 c41 1 74 4 74 7 0 3 -45 66
-100 140 -55 73 -100 137 -100 141 0 4 41 50 90 103 50 53 90 99 90 101 0 3
-10 4 -21 3 -13 -1 -55 -37 -104 -90 l-82 -88 -68 91 -68 91 -73 -2 c-41 -1
-74 -4 -74 -7z m285 -234 c83 -110 152 -205 153 -209 2 -5 -11 -9 -30 -9 -31
1 -41 11 -183 202 -82 111 -151 205 -153 210 -2 4 11 8 30 8 31 -1 41 -11 183
-202z"/>
<path d="M1340 3201 c-70 -22 -93 -35 -156 -82 -55 -42 -118 -125 -150 -199
-14 -34 -19 -67 -19 -142 0 -53 5 -101 10 -107 7 -7 9 7 7 42 -4 65 20 171 54
238 119 237 433 311 646 154 221 -162 243 -483 47 -670 -61 -58 -153 -108
-224 -120 -22 -4 -44 -11 -50 -15 -5 -4 -19 -10 -30 -13 -39 -9 27 -7 89 3 89
14 176 60 243 127 105 106 158 265 134 403 -43 237 -235 401 -470 399 -44 0
-99 -8 -131 -18z"/>
<path d="M2465 3206 c-130 -32 -251 -130 -313 -254 -37 -76 -37 -77 -37 -201
0 -125 0 -127 37 -201 20 -41 54 -94 76 -117 121 -127 300 -180 466 -137 129
33 241 126 304 253 37 74 37 76 37 200 0 125 0 127 -37 202 -98 200 -321 307
-533 255z m244 -42 c69 -20 169 -90 213 -149 115 -152 117 -370 5 -521 -54
-73 -66 -83 -147 -128 -217 -118 -489 -27 -597 200 -80 168 -44 360 91 494
114 114 275 152 435 104z"/>
<path d="M2561 2959 c-28 -27 -31 -37 -31 -90 l0 -59 -40 0 c-40 0 -40 0 -40
-39 0 -39 1 -40 38 -43 l37 -3 3 -112 3 -113 39 0 40 0 0 115 0 115 40 0 40 0
0 40 0 40 -40 0 -40 0 0 43 c0 52 13 67 57 67 31 0 33 2 33 35 l0 35 -54 0
c-47 0 -58 -4 -85 -31z"/>
<path d="M4660 3206 c-186 -51 -324 -207 -350 -394 -20 -144 30 -292 133 -393
280 -276 748 -117 796 270 30 236 -118 457 -344 516 -70 18 -172 19 -235 1z
m270 -50 c107 -39 191 -121 248 -242 24 -53 27 -70 27 -164 0 -101 -2 -108
-37 -183 -45 -94 -114 -164 -207 -210 -63 -31 -71 -32 -186 -32 -118 0 -123 1
-188 34 -111 56 -190 150 -227 270 -47 148 -8 302 107 422 117 123 298 164
463 105z"/>
<path d="M4665 2913 c-118 -7 -125 -15 -125 -163 0 -102 11 -146 39 -154 39
-11 218 -17 298 -11 73 6 90 12 111 32 23 23 24 29 20 138 -4 152 -3 151 -163
157 -66 3 -147 3 -180 1z m128 -116 c32 -17 59 -36 59 -41 0 -10 -115 -76
-132 -76 -6 0 -10 33 -10 75 0 53 4 75 13 75 6 0 38 -15 70 -33z"/>
<path d="M5775 3210 c-60 -15 -95 -31 -89 -41 3 -5 -2 -6 -10 -3 -41 16 -181
-122 -230 -226 -29 -61 -30 -72 -31 -185 0 -109 3 -126 28 -185 30 -71 102
-164 119 -154 6 4 8 2 5 -4 -9 -14 41 -55 107 -86 80 -38 179 -52 271 -39 77
11 190 57 180 74 -4 5 0 6 7 4 30 -12 175 161 163 193 -2 7 -1 11 4 8 15 -10
41 108 41 186 0 187 -93 333 -268 419 -75 37 -92 42 -170 45 -48 2 -105 -1
-127 -6z m181 -31 c32 -6 88 -26 123 -44 35 -19 69 -31 75 -28 6 3 8 3 4 -2
-4 -4 12 -29 36 -56 46 -51 87 -127 105 -194 30 -109 1 -259 -68 -357 -22 -31
-39 -58 -38 -60 1 -2 0 -2 -2 -1 -2 1 -21 -11 -42 -27 -94 -75 -223 -110 -336
-90 -37 7 -78 13 -90 14 -12 0 -20 3 -17 5 2 2 -22 19 -54 37 -31 19 -74 53
-96 77 -21 23 -43 41 -48 39 -5 -1 -7 2 -4 7 3 5 -5 31 -18 58 -73 145 -58
318 39 447 43 58 141 140 179 150 142 38 168 40 252 25z"/>
<path d="M5707 2949 c-22 -31 -4 -69 33 -69 38 0 56 24 44 58 -12 36 -56 42
-77 11z"/>
<path d="M5704 2817 c-2 -7 -3 -71 -2 -142 3 -123 4 -130 23 -129 59 3 55 -8
55 144 l0 140 -35 0 c-20 0 -38 -6 -41 -13z"/>
<path d="M5850 2690 l0 -140 39 0 39 0 4 95 c3 103 9 115 59 115 15 0 31 -6
37 -13 6 -7 13 -55 14 -107 3 -84 5 -93 23 -96 11 -2 28 -1 38 2 17 5 18 16
15 119 -3 104 -5 116 -27 139 -32 33 -96 36 -135 5 l-26 -20 0 20 c0 18 -6 21
-40 21 l-40 0 0 -140z"/>
<path d="M1254 2969 l-29 -30 -3 -168 c-5 -270 0 -276 253 -276 257 0 258 1
253 271 l-3 176 -33 29 -32 29 -188 0 -188 0 -30 -31z m417 -28 c17 -21 19
-41 19 -191 0 -229 14 -215 -213 -215 -233 0 -217 -15 -217 207 0 177 5 203
43 218 12 5 96 8 185 7 159 -2 164 -3 183 -26z"/>
<path d="M1597 2913 c-13 -12 -7 -41 10 -47 9 -4 23 0 31 8 13 12 13 18 2 30
-13 17 -32 21 -43 9z"/>
<path d="M1424 2870 c-29 -12 -71 -64 -79 -99 -9 -43 25 -115 64 -135 61 -32
148 -10 175 43 23 44 21 113 -5 145 -38 49 -102 68 -155 46z m98 -41 c11 -6
26 -26 34 -45 12 -29 12 -39 0 -68 -33 -80 -138 -75 -166 8 -26 79 57 145 132
105z"/>
</g>
</svg>
